<svg width="42" height="40" viewBox="0 0 42 40" fill="none" xmlns="http://www.w3.org/2000/svg">
<ellipse cx="20.9685" cy="20" rx="20.9685" ry="20" fill="#22C55E"/>
<path d="M24.7129 10C25.7059 10 26.6583 10.3763 27.3605 11.046C28.0627 11.7158 28.4572 12.6242 28.4572 13.5714V16.5714C27.9784 16.3381 27.4767 16.1501 26.9595 16.01V15.7143H11.982V23.5714C11.982 24.1397 12.2187 24.6848 12.64 25.0867C13.0613 25.4885 13.6328 25.7143 14.2286 25.7143H16.7853C16.9341 26.2133 17.1303 26.6895 17.3739 27.1429H14.2286C13.2356 27.1429 12.2832 26.7666 11.581 26.0968C10.8787 25.427 10.4843 24.5186 10.4843 23.5714V13.5714C10.4843 12.6242 10.8787 11.7158 11.581 11.046C12.2832 10.3763 13.2356 10 14.2286 10H24.7129ZM24.7129 11.4286H14.2286C13.6328 11.4286 13.0613 11.6543 12.64 12.0562C12.2187 12.4581 11.982 13.0031 11.982 13.5714V14.2857H26.9595V13.5714C26.9595 13.0031 26.7228 12.4581 26.3015 12.0562C25.8801 11.6543 25.3087 11.4286 24.7129 11.4286ZM31.4527 23.5714C31.4527 25.2764 30.7426 26.9115 29.4787 28.1171C28.2147 29.3227 26.5004 30 24.7129 30C22.9253 30 21.211 29.3227 19.9471 28.1171C18.6831 26.9115 17.973 25.2764 17.973 23.5714C17.973 21.8665 18.6831 20.2313 19.9471 19.0257C21.211 17.8202 22.9253 17.1429 24.7129 17.1429C26.5004 17.1429 28.2147 17.8202 29.4787 19.0257C30.7426 20.2313 31.4527 21.8665 31.4527 23.5714ZM27.4897 21.9343C27.6303 21.8002 27.7093 21.6183 27.7093 21.4286C27.7093 21.2389 27.6303 21.057 27.4897 20.9229C27.3491 20.7887 27.1583 20.7134 26.9595 20.7134C26.7606 20.7134 26.5699 20.7887 26.4293 20.9229L24.7129 22.5614L22.9964 20.9229C22.8558 20.7887 22.6651 20.7134 22.4662 20.7134C22.2674 20.7134 22.0767 20.7887 21.936 20.9229C21.7954 21.057 21.7164 21.2389 21.7164 21.4286C21.7164 21.6183 21.7954 21.8002 21.936 21.9343L23.6539 23.5714L21.936 25.2086C21.7954 25.3427 21.7164 25.5246 21.7164 25.7143C21.7164 25.904 21.7954 26.0859 21.936 26.22C22.0767 26.3541 22.2674 26.4295 22.4662 26.4295C22.6651 26.4295 22.8558 26.3541 22.9964 26.22L24.7129 24.5814L26.4293 26.22C26.5699 26.3541 26.7606 26.4295 26.9595 26.4295C27.1583 26.4295 27.3491 26.3541 27.4897 26.22C27.6303 26.0859 27.7093 25.904 27.7093 25.7143C27.7093 25.5246 27.6303 25.3427 27.4897 25.2086L25.7718 23.5714L27.4897 21.9343Z" fill="white"/>
</svg>
