<svg width="222" height="222" viewBox="0 0 222 222" fill="none" xmlns="http://www.w3.org/2000/svg">
<rect x="95.75" y="88.75" width="30" height="40" rx="15" fill="#DBEAFE"/>
<g filter="url(#filter0_d_394_2165)">
<path d="M109.417 107.639H110.083C110.26 107.639 110.43 107.709 110.555 107.834C110.68 107.959 110.75 108.129 110.75 108.306V112.972M109.417 112.972H112.083" stroke="#0059EA" stroke-width="1.5" stroke-linecap="round" stroke-linejoin="round"/>
<path d="M100.75 104.75H120.75M106.083 101.417V96.75M115.417 101.417V96.75M102.083 99.4167H119.417C119.417 99.4167 120.75 99.4167 120.75 100.75V115.417C120.75 115.417 120.75 116.75 119.417 116.75H102.083C102.083 116.75 100.75 116.75 100.75 115.417V100.75C100.75 100.75 100.75 99.4167 102.083 99.4167Z" stroke="#0059EA" stroke-width="1.5" stroke-linecap="round" stroke-linejoin="round"/>
</g>
<defs>
<filter id="filter0_d_394_2165" x="0" y="0" width="221.5" height="221.5" filterUnits="userSpaceOnUse" color-interpolation-filters="sRGB">
<feFlood flood-opacity="0" result="BackgroundImageFix"/>
<feColorMatrix in="SourceAlpha" type="matrix" values="0 0 0 0 0 0 0 0 0 0 0 0 0 0 0 0 0 0 127 0" result="hardAlpha"/>
<feOffset dy="4"/>
<feGaussianBlur stdDeviation="50"/>
<feComposite in2="hardAlpha" operator="out"/>
<feColorMatrix type="matrix" values="0 0 0 0 0.541176 0 0 0 0 0.219608 0 0 0 0 0.960784 0 0 0 1 0"/>
<feBlend mode="normal" in2="BackgroundImageFix" result="effect1_dropShadow_394_2165"/>
<feBlend mode="normal" in="SourceGraphic" in2="effect1_dropShadow_394_2165" result="shape"/>
</filter>
</defs>
</svg>
