<svg width="18" height="19" viewBox="0 0 18 19" fill="none" xmlns="http://www.w3.org/2000/svg">
<path d="M17.5 4.5V6.55078C17.0237 6.64823 16.5823 6.88348 16.2334 7.23242C15.7646 7.70126 15.501 8.33696 15.501 9V13C15.501 14.4279 15.4999 15.4488 15.3955 16.2246C15.293 16.986 15.0989 17.436 14.7676 17.7666V17.7676C14.437 18.0985 13.9869 18.2921 13.2256 18.3945C12.4498 18.4989 11.4286 18.5 10 18.5H8C6.57186 18.5 5.55034 18.4989 4.77441 18.3945C4.10826 18.3049 3.68022 18.1459 3.3623 17.8857L3.23242 17.7676C2.90156 17.4371 2.70791 16.9869 2.60547 16.2256C2.50112 15.4497 2.5 14.4281 2.5 13V9L2.4873 8.75293C2.43048 8.18063 2.17781 7.64265 1.76758 7.23242C1.4184 6.88324 0.976701 6.64811 0.5 6.55078V4.5H17.5ZM6.5 7.5C6.10217 7.5 5.72076 7.65815 5.43945 7.93945C5.15815 8.22076 5 8.60217 5 9V14C5 14.3978 5.15815 14.7792 5.43945 15.0605C5.72076 15.3419 6.10218 15.5 6.5 15.5C6.89782 15.5 7.27924 15.3419 7.56055 15.0605C7.84185 14.7792 8 14.3978 8 14V9C8 8.60217 7.84185 8.22076 7.56055 7.93945C7.27924 7.65815 6.89783 7.5 6.5 7.5ZM11.5 7.5C11.1022 7.5 10.7208 7.65815 10.4395 7.93945C10.1581 8.22076 10 8.60217 10 9V14C10 14.3978 10.1581 14.7792 10.4395 15.0605C10.7208 15.3419 11.1022 15.5 11.5 15.5C11.8978 15.5 12.2792 15.3419 12.5605 15.0605C12.8419 14.7792 13 14.3978 13 14V9C13 8.60217 12.8419 8.22076 12.5605 7.93945C12.2792 7.65815 11.8978 7.5 11.5 7.5Z" fill="#22C55E" stroke="#22C55E"/>
<path d="M7.06812 1.37016C7.18212 1.26416 7.43312 1.17016 7.78312 1.10316C8.1848 1.03184 8.59216 0.997367 9.00012 1.00016C9.44012 1.00016 9.86812 1.03616 10.2171 1.10316C10.5661 1.17016 10.8171 1.26416 10.9321 1.37116" fill="#22C55E"/>
<path d="M7.06812 1.37016C7.18212 1.26416 7.43312 1.17016 7.78312 1.10316C8.1848 1.03184 8.59216 0.997367 9.00012 1.00016C9.44012 1.00016 9.86812 1.03616 10.2171 1.10316C10.5661 1.17016 10.8171 1.26416 10.9321 1.37116" stroke="#22C55E" stroke-width="2" stroke-linecap="round"/>
</svg>
