<svg width="42" height="40" viewBox="0 0 42 40" fill="none" xmlns="http://www.w3.org/2000/svg">
<ellipse cx="20.9685" cy="20" rx="20.9685" ry="20" fill="#22C55E"/>
<path d="M20.1126 10C19.8987 10 19.6847 10.1 19.4707 10.2L11.0192 14.6C10.6982 14.8 10.4843 15.1 10.4843 15.5V24.5C10.4843 24.9 10.6982 25.2 11.0192 25.4L19.4707 29.8C19.6847 29.9 19.8987 30 20.1126 30C20.3266 30 20.5406 29.9 20.7545 29.8L21.7174 29.3C21.3964 28.7 21.2894 28 21.1825 27.3V20.6L27.6014 17.2V21C28.3502 21 29.0991 21.1 29.741 21.3V15.5C29.741 15.1 29.527 14.8 29.2061 14.6L20.7545 10.2C20.5406 10.1 20.3266 10 20.1126 10ZM20.1126 12.2L26.5315 15.5L24.3919 16.6L18.08 13.2L20.1126 12.2ZM15.9403 14.3L22.2523 17.8L20.1126 18.9L13.6937 15.5L15.9403 14.3ZM12.6239 17.2L19.0428 20.6V27.3L12.6239 23.9V17.2ZM30.062 23.8L26.2106 27.4L24.4989 25.8L23.3221 27L26.3176 30L31.4527 25.2L30.062 23.8Z" fill="white"/>
</svg>
