<svg width="20" height="20" viewBox="0 0 20 20" fill="none" xmlns="http://www.w3.org/2000/svg">
<path d="M16.875 7.35C16.525 7.35 16.25 7.075 16.25 6.725V1.875C16.25 1.525 15.975 1.25 15.625 1.25H4.375C4.025 1.25 3.75 1.525 3.75 1.875V4.375C3.75 4.725 3.475 5 3.125 5C2.775 5 2.5 4.725 2.5 4.375V1.875C2.5 0.8375 3.3375 0 4.375 0H15.625C16.6625 0 17.5 0.8375 17.5 1.875V6.725C17.5 7.075 17.225 7.35 16.875 7.35Z" fill="#22C55E"/>
<path d="M18.125 20H1.875C0.8375 20 0 19.1625 0 18.125V5.625C0 4.5875 0.8375 3.75 1.875 3.75H7.8125C8.0125 3.75 8.2 3.8375 8.3125 4L10 6.25H18.125C19.1625 6.25 20 7.0875 20 8.125V18.125C20 19.1625 19.1625 20 18.125 20ZM1.875 5C1.525 5 1.25 5.275 1.25 5.625V18.125C1.25 18.475 1.525 18.75 1.875 18.75H18.125C18.475 18.75 18.75 18.475 18.75 18.125V8.125C18.75 7.775 18.475 7.5 18.125 7.5H9.6875C9.59013 7.50204 9.49372 7.48034 9.40661 7.43679C9.31949 7.39323 9.24429 7.32912 9.1875 7.25L7.5 5H1.875Z" fill="#22C55E"/>
<path d="M6.875 16.25H4.375C4.025 16.25 3.75 15.975 3.75 15.625C3.75 15.275 4.025 15 4.375 15H6.875C7.225 15 7.5 15.275 7.5 15.625C7.5 15.975 7.225 16.25 6.875 16.25Z" fill="#22C55E"/>
</svg>
