<svg width="18" height="18" viewBox="0 0 18 18" fill="none" xmlns="http://www.w3.org/2000/svg">
<path fill-rule="evenodd" clip-rule="evenodd" d="M0.75 0C0.551088 0 0.360322 0.0790178 0.21967 0.21967C0.0790178 0.360322 0 0.551088 0 0.75V17.25C0 17.4489 0.0790178 17.6397 0.21967 17.7803C0.360322 17.921 0.551088 18 0.75 18H17.25C17.4489 18 17.6397 17.921 17.7803 17.7803C17.921 17.6397 18 17.4489 18 17.25V0.75C18 0.551088 17.921 0.360322 17.7803 0.21967C17.6397 0.0790178 17.4489 0 17.25 0H0.75ZM3 6H12V4.5H3V6ZM13.5 6H15V4.5H13.5V6ZM12 9.75H3V8.25H12V9.75ZM13.5 9.75H15V8.25H13.5V9.75ZM12 13.5H3V12H12V13.5ZM13.5 13.5H15V12H13.5V13.5Z" fill="#22C55E"/>
</svg>
