<svg width="30" height="40" viewBox="0 0 30 40" fill="none" xmlns="http://www.w3.org/2000/svg">
<rect width="30" height="40" rx="15" fill="#FFE0E0"/>
<path d="M7.22222 30C6.61111 30 6.08815 29.8043 5.65333 29.413C5.21852 29.0217 5.00074 28.5507 5 28V14C5 13.45 5.21778 12.9793 5.65333 12.588C6.08889 12.1967 6.61185 12.0007 7.22222 12H8.33333V10H10.5556V12H19.4444V10H21.6667V12H22.7778C23.3889 12 23.9122 12.196 24.3478 12.588C24.7833 12.98 25.0007 13.4507 25 14V28C25 28.55 24.7826 29.021 24.3478 29.413C23.913 29.805 23.3896 30.0007 22.7778 30H7.22222ZM7.22222 28H22.7778V18H7.22222V28ZM7.22222 16H22.7778V14H7.22222V16ZM15 22C14.6852 22 14.4215 21.904 14.2089 21.712C13.9963 21.52 13.8896 21.2827 13.8889 21C13.8881 20.7173 13.9948 20.48 14.2089 20.288C14.423 20.096 14.6867 20 15 20C15.3133 20 15.5774 20.096 15.7922 20.288C16.007 20.48 16.1133 20.7173 16.1111 21C16.1089 21.2827 16.0022 21.5203 15.7911 21.713C15.58 21.9057 15.3163 22.0013 15 22ZM10.5556 22C10.2407 22 9.97704 21.904 9.76444 21.712C9.55185 21.52 9.44518 21.2827 9.44444 21C9.4437 20.7173 9.55037 20.48 9.76444 20.288C9.97852 20.096 10.2422 20 10.5556 20C10.8689 20 11.133 20.096 11.3478 20.288C11.5626 20.48 11.6689 20.7173 11.6667 21C11.6644 21.2827 11.5578 21.5203 11.3467 21.713C11.1356 21.9057 10.8719 22.0013 10.5556 22ZM19.4444 22C19.1296 22 18.8659 21.904 18.6533 21.712C18.4407 21.52 18.3341 21.2827 18.3333 21C18.3326 20.7173 18.4393 20.48 18.6533 20.288C18.8674 20.096 19.1311 20 19.4444 20C19.7578 20 20.0219 20.096 20.2367 20.288C20.4515 20.48 20.5578 20.7173 20.5556 21C20.5533 21.2827 20.4467 21.5203 20.2356 21.713C20.0244 21.9057 19.7607 22.0013 19.4444 22ZM15 26C14.6852 26 14.4215 25.904 14.2089 25.712C13.9963 25.52 13.8896 25.2827 13.8889 25C13.8881 24.7173 13.9948 24.48 14.2089 24.288C14.423 24.096 14.6867 24 15 24C15.3133 24 15.5774 24.096 15.7922 24.288C16.007 24.48 16.1133 24.7173 16.1111 25C16.1089 25.2827 16.0022 25.5203 15.7911 25.713C15.58 25.9057 15.3163 26.0013 15 26ZM10.5556 26C10.2407 26 9.97704 25.904 9.76444 25.712C9.55185 25.52 9.44518 25.2827 9.44444 25C9.4437 24.7173 9.55037 24.48 9.76444 24.288C9.97852 24.096 10.2422 24 10.5556 24C10.8689 24 11.133 24.096 11.3478 24.288C11.5626 24.48 11.6689 24.7173 11.6667 25C11.6644 25.2827 11.5578 25.5203 11.3467 25.713C11.1356 25.9057 10.8719 26.0013 10.5556 26ZM19.4444 26C19.1296 26 18.8659 25.904 18.6533 25.712C18.4407 25.52 18.3341 25.2827 18.3333 25C18.3326 24.7173 18.4393 24.48 18.6533 24.288C18.8674 24.096 19.1311 24 19.4444 24C19.7578 24 20.0219 24.096 20.2367 24.288C20.4515 24.48 20.5578 24.7173 20.5556 25C20.5533 25.2827 20.4467 25.5203 20.2356 25.713C20.0244 25.9057 19.7607 26.0013 19.4444 26Z" fill="#FF0B0B"/>
</svg>
