<svg width="42" height="40" viewBox="0 0 42 40" fill="none" xmlns="http://www.w3.org/2000/svg">
<ellipse cx="20.9685" cy="20" rx="20.9685" ry="20" fill="#22C55E"/>
<path d="M16.5541 26.6666C16.9932 26.6666 17.4142 26.8422 17.7247 27.1548C18.0352 27.4673 18.2096 27.8913 18.2096 28.3333C18.2096 28.7753 18.0352 29.1992 17.7247 29.5118C17.4142 29.8244 16.9932 30 16.5541 30C16.1151 30 15.694 29.8244 15.3836 29.5118C15.0731 29.1992 14.8987 28.7753 14.8987 28.3333C14.8987 27.8913 15.0731 27.4673 15.3836 27.1548C15.694 26.8422 16.1151 26.6666 16.5541 26.6666ZM26.4867 26.6666C26.9257 26.6666 27.3468 26.8422 27.6573 27.1548C27.9677 27.4673 28.1421 27.8913 28.1421 28.3333C28.1421 28.7753 27.9677 29.1992 27.6573 29.5118C27.3468 29.8244 26.9257 30 26.4867 30C26.0476 30 25.6266 29.8244 25.3161 29.5118C25.0057 29.1992 24.8313 28.7753 24.8313 28.3333C24.8313 27.8913 25.0057 27.4673 25.3161 27.1548C25.6266 26.8422 26.0476 26.6666 26.4867 26.6666Z" stroke="white" stroke-width="1.5"/>
<path d="M20.4167 18.6666L21.6782 20L24.8312 16.6666" stroke="white" stroke-width="1.5" stroke-linecap="round" stroke-linejoin="round"/>
<path d="M10.4843 10L10.7723 10.1022C12.2092 10.61 12.9277 10.8644 13.3382 11.47C13.7488 12.0756 13.7488 12.8789 13.7488 14.4867V17.5111C13.7488 20.78 13.8183 21.8578 14.7751 22.8733C15.7308 23.8889 17.2693 23.8889 20.3484 23.8889H21.5204M26.1998 23.8889C27.9225 23.8889 28.7844 23.8889 29.3936 23.3889C30.0017 22.8889 30.1761 22.04 30.5237 20.3411L31.0755 17.6478C31.4585 15.7144 31.6494 14.7489 31.1594 14.1078C30.6705 13.4667 28.9963 13.4667 27.1367 13.4667H20.4433M13.7488 13.4667H16.0023" stroke="white" stroke-width="1.5" stroke-linecap="round"/>
</svg>
