<svg width="42" height="40" viewBox="0 0 42 40" fill="none" xmlns="http://www.w3.org/2000/svg">
<ellipse cx="20.9685" cy="20" rx="20.9685" ry="20" fill="#22C55E"/>
<path d="M29.1229 20.6818V26.3636L20.7355 29.9999M20.7355 29.9999L12.3481 26.3636V20.8081M20.7355 29.9999V20.4545M20.7355 20.4545L29.1229 16.8181L20.7355 13.1818L12.3481 16.8181L20.7355 20.4545Z" stroke="white" stroke-miterlimit="10" stroke-linecap="round" stroke-linejoin="round"/>
<path d="M12.3481 16.8182L10.4842 13.6364L18.8716 10L20.7354 13.1818M29.1228 16.8182L30.9867 13.6364L23.0653 10L20.7354 13.1818M20.7354 20.4545L18.8716 23.6364L10.4842 20L12.3481 16.8182M20.7354 20.4545L23.0653 23.6364L31.4527 19.5455L29.1228 16.8182" stroke="white" stroke-miterlimit="10" stroke-linecap="round" stroke-linejoin="round"/>
</svg>
