<svg width="18" height="18" viewBox="0 0 18 18" fill="none" xmlns="http://www.w3.org/2000/svg">
<path d="M16.228 18L10.0692 11.7C9.58039 12.1 9.01828 12.4167 8.38284 12.65C7.74741 12.8833 7.07124 13 6.35434 13C4.57838 13 3.0755 12.3707 1.84569 11.112C0.615883 9.85333 0.000652245 8.316 5.17244e-07 6.5C-0.00065121 4.684 0.614579 3.14667 1.84569 1.888C3.07681 0.629333 4.57969 0 6.35434 0C8.129 0 9.6322 0.629333 10.864 1.888C12.0957 3.14667 12.7106 4.684 12.7087 6.5C12.7087 7.23333 12.5946 7.925 12.3665 8.575C12.1384 9.225 11.8289 9.8 11.4378 10.3L17.5966 16.6L16.228 18ZM6.35434 11C7.57633 11 8.61518 10.5627 9.4709 9.688C10.3266 8.81333 10.7542 7.75067 10.7535 6.5C10.7528 5.24933 10.3253 4.187 9.4709 3.313C8.61649 2.439 7.57763 2.00133 6.35434 2C5.13105 1.99867 4.09252 2.43633 3.23876 3.313C2.385 4.18967 1.95714 5.252 1.95518 6.5C1.95323 7.748 2.38109 8.81067 3.23876 9.688C4.09643 10.5653 5.13496 11.0027 6.35434 11Z" fill="#22C55E"/>
</svg>
