<svg width="42" height="40" viewBox="0 0 42 40" fill="none" xmlns="http://www.w3.org/2000/svg">
<ellipse cx="20.9685" cy="20" rx="20.9685" ry="20" fill="#22C55E"/>
<path d="M17.156 30C17.6615 30 18.1464 29.6759 18.5039 29.0988C18.8614 28.5218 19.0622 27.7392 19.0622 26.9231C19.0622 26.1071 18.8614 25.3244 18.5039 24.7474C18.1464 24.1704 17.6615 23.8462 17.156 23.8462C16.6504 23.8462 16.1656 24.1704 15.8081 24.7474C15.4506 25.3244 15.2498 26.1071 15.2498 26.9231C15.2498 27.7392 15.4506 28.5218 15.8081 29.0988C16.1656 29.6759 16.6504 30 17.156 30ZM26.6871 30C27.1927 30 27.6775 29.6759 28.035 29.0988C28.3925 28.5218 28.5933 27.7392 28.5933 26.9231C28.5933 26.1071 28.3925 25.3244 28.035 24.7474C27.6775 24.1704 27.1927 23.8462 26.6871 23.8462C26.1815 23.8462 25.6967 24.1704 25.3392 24.7474C24.9817 25.3244 24.7809 26.1071 24.7809 26.9231C24.7809 27.7392 24.9817 28.5218 25.3392 29.0988C25.6967 29.6759 26.1815 30 26.6871 30Z" stroke="white" stroke-width="1.5" stroke-miterlimit="1.5" stroke-linecap="round" stroke-linejoin="round"/>
<path d="M19.11 26.9231H23.8279V10.9231C23.8279 10.6783 23.7676 10.4435 23.6604 10.2704C23.5531 10.0973 23.4077 10 23.256 10H10.4843M14.9163 26.9231H12.9624C12.8873 26.9231 12.8129 26.8992 12.7436 26.8528C12.6742 26.8064 12.6111 26.7384 12.558 26.6527C12.5049 26.567 12.4628 26.4652 12.4341 26.3532C12.4053 26.2413 12.3905 26.1212 12.3905 26V18.4615" stroke="white" stroke-width="1.5" stroke-linecap="round"/>
<path d="M11.4374 14.6154H15.2498" stroke="white" stroke-width="1.5" stroke-linecap="round" stroke-linejoin="round"/>
<path d="M23.8278 14.6154H29.1748C29.2853 14.6154 29.3935 14.6672 29.4862 14.7644C29.5789 14.8616 29.6521 15 29.6971 15.163L31.4032 21.36C31.4357 21.4776 31.4525 21.605 31.4527 21.7338V26C31.4527 26.1212 31.4379 26.2412 31.4092 26.3532C31.3804 26.4652 31.3383 26.567 31.2852 26.6527C31.2321 26.7384 31.1691 26.8064 31.0997 26.8528C31.0303 26.8992 30.9559 26.923 30.8809 26.923H29.0699M23.8278 26.923H24.7809" stroke="white" stroke-width="1.5" stroke-linecap="round"/>
</svg>
