<svg width="30" height="40" viewBox="0 0 30 40" fill="none" xmlns="http://www.w3.org/2000/svg">
<rect width="30" height="40" rx="15" fill="#F3E8FF"/>
<path d="M7.22222 12H8.33333V10H10.5556V12H19.4444V10H21.6667V12H22.7778C24.0111 12 25 12.89 25 14V28C25 28.5304 24.7659 29.0391 24.3491 29.4142C23.9324 29.7893 23.3671 30 22.7778 30H7.22222C6.63285 30 6.06762 29.7893 5.65087 29.4142C5.23413 29.0391 5 28.5304 5 28V14C5 13.4696 5.23413 12.9609 5.65087 12.5858C6.06762 12.2107 6.63285 12 7.22222 12ZM7.22222 28H22.7778V18H7.22222V28ZM7.22222 16H22.7778V14H7.22222V16ZM20.5556 20V22H9.44444V20H20.5556Z" fill="#8500E8"/>
</svg>
